<?xml version="1.0" encoding="utf-8"?>
<!-- Generator: Adobe Illustrator 19.2.1, SVG Export Plug-In . SVG Version: 6.00 Build 0)  -->
<svg version="1.1" id="Layer_1" xmlns="http://www.w3.org/2000/svg" xmlns:xlink="http://www.w3.org/1999/xlink" x="0px" y="0px"
	 viewBox="0 0 512 512" style="enable-background:new 0 0 512 512;" xml:space="preserve">
<style type="text/css">
	.st0{fill:#EC1C24;}
	.st1{fill:#FFFFFF;}
</style>
<g>
	<rect x="-0.1" class="st0" width="512.1" height="512.1"/>
	<g>
		<path class="st1" d="M289.3,275.9c0.1-1.7,0.6-3.3,1.4-4.8c0.8-1.5,1.8-2.7,3-3.7c1.2-1,2.6-1.8,4.3-2.3c1.6-0.5,3.3-0.7,5.1-0.6
			c3.6,0.3,6.6,1.7,8.9,4.3c2.3,2.6,3.3,5.6,3.1,9c-0.1,1.6-0.5,3.2-1.3,4.7c-0.7,1.5-1.7,2.7-3,3.7c-1.3,1-2.7,1.8-4.3,2.4
			c-1.6,0.6-3.3,0.8-5.1,0.7c-1.7-0.1-3.4-0.6-4.9-1.3c-1.5-0.8-2.9-1.7-3.9-2.9c-1.1-1.2-1.9-2.5-2.5-4.1
			C289.4,279.3,289.2,277.7,289.3,275.9z M326.1,161.9l-12.4,92.7c-0.1,1.5-1.4,2.6-2.8,2.5l-14.5-1.2c-1.5-0.1-2.6-1.4-2.5-2.8
			l4.7-84.6c0.3-6.5,3.7-8,7.3-8.8l13.9-3.3C324.4,155.1,326.7,158.5,326.1,161.9z"/>
		<g>
			<path class="st1" d="M154.6,355.4v-10.8h-10.1v10.8h-6.2v-25.8h6.2v9.8h10.1v-9.8h6.2v25.8H154.6z"/>
			<path class="st1" d="M200.6,342.4c0,2-0.4,3.9-1.1,5.6c-0.7,1.7-1.7,3.1-2.9,4.3c-1.3,1.2-2.7,2.1-4.5,2.8c-1.7,0.7-3.6,1-5.6,1
				c-2,0-3.9-0.3-5.6-1c-1.7-0.7-3.2-1.6-4.5-2.8c-1.3-1.2-2.2-2.7-2.9-4.3c-0.7-1.7-1.1-3.6-1.1-5.6c0-2.1,0.4-3.9,1.1-5.6
				c0.7-1.7,1.7-3.1,2.9-4.3c1.3-1.2,2.7-2.1,4.5-2.7s3.6-0.9,5.6-0.9c2,0,3.9,0.3,5.6,0.9s3.2,1.5,4.5,2.7c1.3,1.2,2.2,2.6,2.9,4.3
				C200.3,338.5,200.6,340.3,200.6,342.4z M194,342.4c0-1.1-0.2-2.2-0.5-3.1c-0.4-1-0.9-1.8-1.5-2.5c-0.6-0.7-1.4-1.2-2.3-1.6
				c-0.9-0.4-1.9-0.6-3-0.6c-1.1,0-2.1,0.2-3,0.6c-0.9,0.4-1.7,0.9-2.3,1.6c-0.7,0.7-1.2,1.5-1.5,2.5c-0.4,1-0.5,2-0.5,3.1
				c0,1.2,0.2,2.2,0.5,3.2c0.4,1,0.9,1.8,1.5,2.5c0.6,0.7,1.4,1.3,2.3,1.7c0.9,0.4,1.9,0.6,3,0.6c1.1,0,2.1-0.2,3-0.6
				c0.9-0.4,1.7-1,2.3-1.7c0.7-0.7,1.2-1.6,1.5-2.5C193.8,344.7,194,343.6,194,342.4z"/>
			<path class="st1" d="M212.3,355.4v-25.8h6.3V350h10v5.4H212.3z"/>
			<path class="st1" d="M241.9,355.4v-25.8h6.3v25.8H241.9z"/>
			<path class="st1" d="M287.9,342.4c0,2.3-0.4,4.2-1.3,5.9c-0.8,1.6-1.9,3-3.3,4.1c-1.4,1.1-2.9,1.8-4.7,2.3
				c-1.7,0.5-3.5,0.7-5.3,0.7h-9.6v-25.8h9.3c1.8,0,3.6,0.2,5.4,0.6c1.8,0.4,3.4,1.1,4.7,2.1c1.4,1,2.5,2.3,3.4,4
				C287.5,338,287.9,340,287.9,342.4z M281.4,342.4c0-1.5-0.2-2.7-0.7-3.6c-0.5-1-1.1-1.7-1.9-2.3s-1.7-1-2.7-1.2
				c-1-0.2-2.1-0.4-3.1-0.4h-3.1V350h3c1.1,0,2.2-0.1,3.2-0.4c1-0.3,1.9-0.7,2.7-1.3c0.8-0.6,1.4-1.4,1.9-2.3
				C281.2,345.1,281.4,343.9,281.4,342.4z"/>
			<path class="st1" d="M319,355.4l-2-5.1h-10l-1.9,5.1h-6.8l10.8-25.8h6.1l10.7,25.8H319z M312.1,336.5l-3.3,8.9h6.5L312.1,336.5z"
				/>
			<path class="st1" d="M348.8,344.5v11h-6.2v-11l-9.7-14.9h7.6l5.5,9.6l5.5-9.6h7.3L348.8,344.5z"/>
			<path class="st1" d="M384.7,336.3c-0.5-0.7-1.2-1.2-2.1-1.6c-0.9-0.4-1.7-0.6-2.5-0.6c-0.4,0-0.8,0-1.3,0.1
				c-0.4,0.1-0.8,0.2-1.2,0.4c-0.3,0.2-0.6,0.5-0.9,0.8s-0.3,0.7-0.3,1.3c0,0.4,0.1,0.8,0.3,1.1c0.2,0.3,0.4,0.5,0.8,0.8
				c0.4,0.2,0.8,0.4,1.3,0.6c0.5,0.2,1,0.4,1.6,0.6c0.9,0.3,1.8,0.6,2.7,1c0.9,0.4,1.8,0.8,2.6,1.4c0.8,0.6,1.4,1.3,1.9,2.2
				c0.5,0.9,0.8,1.9,0.8,3.2c0,1.5-0.3,2.8-0.8,3.9c-0.5,1.1-1.3,2-2.2,2.7c-0.9,0.7-2,1.2-3.2,1.6c-1.2,0.3-2.4,0.5-3.7,0.5
				c-1.9,0-3.6-0.3-5.4-1c-1.7-0.6-3.2-1.6-4.3-2.8l4.1-4.2c0.6,0.8,1.5,1.4,2.5,2c1,0.5,2.1,0.8,3.1,0.8c0.5,0,0.9,0,1.4-0.1
				c0.4-0.1,0.8-0.3,1.1-0.5c0.3-0.2,0.6-0.5,0.8-0.9c0.2-0.4,0.3-0.8,0.3-1.3c0-0.5-0.1-0.9-0.4-1.2c-0.2-0.3-0.6-0.7-1-0.9
				c-0.5-0.3-1-0.5-1.7-0.8c-0.7-0.2-1.4-0.5-2.3-0.7c-0.8-0.3-1.6-0.6-2.4-0.9c-0.8-0.4-1.5-0.8-2.1-1.4s-1.1-1.3-1.5-2.1
				c-0.4-0.8-0.6-1.8-0.6-3c0-1.4,0.3-2.7,0.9-3.7s1.4-1.9,2.3-2.5c0.9-0.7,2-1.1,3.2-1.4c1.2-0.3,2.4-0.5,3.6-0.5
				c1.5,0,3,0.3,4.5,0.8c1.5,0.5,2.9,1.3,4,2.4L384.7,336.3z"/>
		</g>
		<g>
			<path class="st1" d="M119.2,239.3c0,1,0,1.9,0,2.9c0,0.5,0,1,0,1.5c0,0.7-0.7,1.3-1.4,1.3l-49.6,0c-0.9,0-1.6,0.8-1.4,1.7
				c0.3,1.4,0.8,2.6,1.5,3.8c1,1.7,2.3,3.1,3.9,4.3c1.6,1.2,3.4,2.2,5.4,2.8c2,0.7,4.1,1,6.2,1c3.8,0,7-0.7,9.6-2.1
				c2.2-1.2,4.1-2.7,5.6-4.5c0.5-0.5,1.2-0.7,1.9-0.3l14.3,9c0.7,0.4,0.9,1.4,0.4,2c-3.3,4.4-7.5,7.8-12.6,10.2
				c-5.6,2.7-12.1,4-19.5,4c-5.4,0-10.6-0.9-15.4-2.5c-4.9-1.7-9.1-4.2-12.8-7.4c-3.6-3.3-6.5-7.3-8.6-12
				c-2.1-4.8-3.1-10.2-3.1-16.3c0-5.9,1-11.3,3.1-16.1c2-4.8,4.8-8.9,8.3-12.2c3.5-3.4,7.6-5.9,12.4-7.8c4.8-1.8,9.9-2.8,15.4-2.8
				c5.3,0,10.2,0.9,14.7,2.7c4.5,1.8,8.3,4.4,11.5,7.8c3.2,3.4,5.7,7.5,7.5,12.4C118.4,227.5,119.2,233.1,119.2,239.3z M95.8,230.1
				c0.8,0,1.5-0.7,1.4-1.6c-0.3-3.1-1.5-5.9-3.5-8.2c-2.4-2.7-6-4.1-10.7-4.1c-2.3,0-4.5,0.4-6.4,1.1c-1.9,0.7-3.6,1.7-5.1,3
				c-1.5,1.3-2.6,2.7-3.5,4.4c-0.6,1.2-1,2.4-1.3,3.7c-0.2,0.9,0.5,1.7,1.4,1.7L95.8,230.1z"/>
			<path class="st1" d="M265.4,224.4c-0.5,0.6-1.5,0.7-2,0.1c-1.2-1.2-2.7-2.3-4.5-3.1c-2.3-1.1-4.7-1.6-7.1-1.6
				c-2.5,0-4.8,0.5-6.8,1.5c-2,1-3.8,2.4-5.2,4.1c-1.5,1.7-2.6,3.7-3.4,5.9c-0.8,2.2-1.2,4.6-1.2,7.1c0,2.5,0.4,4.9,1.2,7.1
				c0.8,2.2,1.9,4.2,3.4,5.9c1.5,1.7,3.3,3,5.4,4c2.1,1,4.4,1.5,7.1,1.5c2.4,0,4.8-0.5,7.2-1.4c1.9-0.7,3.4-1.7,4.7-2.9
				c0.6-0.6,1.5-0.5,2,0.1l11.4,13.9c0.5,0.6,0.4,1.4-0.1,1.9c-2.9,2.5-6.4,4.5-10.7,5.9c-4.8,1.7-9.8,2.5-15.2,2.5
				c-5.7,0-11.1-0.9-16.1-2.6c-5-1.7-9.3-4.3-12.9-7.7c-3.7-3.4-6.5-7.4-8.6-12.2c-2.1-4.8-3.2-10.2-3.2-16.2c0-5.9,1-11.3,3.2-16
				c2.1-4.8,5-8.8,8.6-12.2c3.7-3.4,8-5.9,12.9-7.7c5-1.8,10.3-2.7,15.9-2.7c2.6,0,5.2,0.2,7.8,0.7c2.6,0.5,5.1,1.1,7.4,2
				c2.4,0.8,4.6,1.8,6.6,3.1c1.6,1,3,2,4.2,3.1c0.6,0.5,0.6,1.4,0.1,2L265.4,224.4z"/>
			<path class="st1" d="M369.4,219.9c-0.8,0-1.4,0.6-1.4,1.4v26.4c0,3.4,0.7,6,2,7.7c1.3,1.7,3.7,2.6,7.1,2.6c1.2,0,2.4-0.1,3.7-0.3
				c0.6-0.1,1.1-0.2,1.6-0.3c0.9-0.2,1.7,0.4,1.7,1.3l0.2,14.5c0,0.6-0.4,1.2-1,1.4c-1.5,0.4-3.2,0.9-5.3,1.2
				c-2.5,0.4-5.1,0.7-7.6,0.7c-4.9,0-8.9-0.6-12.2-1.8c-3.3-1.2-6-3-7.9-5.3c-2-2.3-3.4-5-4.3-8.2c-0.9-3.2-1.3-6.7-1.3-10.6v-29.3
				c0-0.8-0.6-1.4-1.4-1.4h-8.8c-0.8,0-1.4-0.6-1.4-1.4v-15c0-0.8,0.6-1.4,1.4-1.4h8.7c0.8,0,1.4-0.6,1.4-1.4v-16.3
				c0-0.8,0.6-1.4,1.4-1.4h20.6c0.8,0,1.4,0.6,1.4,1.4v16.3c0,0.8,0.6,1.4,1.4,1.4h14.2c0.8,0,1.4,0.6,1.4,1.4v15
				c0,0.8-0.6,1.4-1.4,1.4H369.4z"/>
			<path class="st1" d="M468.3,239.3c0,1,0,1.9,0,2.9c0,0.5,0,1,0,1.5c0,0.7-0.7,1.3-1.4,1.3l-49.6,0c-0.9,0-1.6,0.8-1.4,1.7
				c0.3,1.4,0.8,2.6,1.5,3.8c1,1.7,2.3,3.1,3.9,4.3c1.6,1.2,3.4,2.2,5.4,2.8c2,0.7,4.1,1,6.2,1c3.8,0,7-0.7,9.6-2.1
				c2.2-1.2,4.1-2.7,5.6-4.5c0.5-0.5,1.2-0.7,1.9-0.3l14.3,9c0.7,0.4,0.9,1.4,0.4,2c-3.3,4.4-7.5,7.8-12.6,10.2
				c-5.6,2.7-12.1,4-19.5,4c-5.4,0-10.6-0.9-15.4-2.5c-4.9-1.7-9.1-4.2-12.8-7.4c-3.6-3.3-6.5-7.3-8.6-12
				c-2.1-4.8-3.1-10.2-3.1-16.3c0-5.9,1-11.3,3.1-16.1c2-4.8,4.8-8.9,8.3-12.2c3.5-3.4,7.6-5.9,12.4-7.8c4.8-1.8,9.9-2.8,15.4-2.8
				c5.3,0,10.2,0.9,14.7,2.7c4.5,1.8,8.3,4.4,11.5,7.8c3.2,3.4,5.7,7.5,7.5,12.4C467.4,227.5,468.3,233.1,468.3,239.3z M444.8,230.1
				c0.8,0,1.5-0.7,1.4-1.6c-0.3-3.1-1.5-5.9-3.5-8.2c-2.4-2.7-6-4.1-10.7-4.1c-2.3,0-4.5,0.4-6.4,1.1c-1.9,0.7-3.6,1.7-5.1,3
				c-1.5,1.3-2.6,2.7-3.5,4.4c-0.6,1.2-1,2.4-1.3,3.7c-0.2,0.9,0.5,1.7,1.4,1.7L444.8,230.1z"/>
		</g>
		<path class="st1" d="M187.8,283.2l-22-31.4c-0.7-0.9-2-0.9-2.7,0l-16.5,21.8c-0.3,0.4-0.8,0.7-1.4,0.7h-22.3
			c-1.4,0-2.2-1.6-1.3-2.7l28-35.8c0.5-0.6,0.5-1.4,0-2l-26.5-35.7c-0.8-1.1-0.1-2.7,1.3-2.7h22.4c0.5,0,1.1,0.3,1.4,0.7l15.3,22.3
			c0.7,0.9,2.1,0.9,2.7,0l14.4-20.6c0.3-0.4,0.8-0.7,1.4-0.7h21.6c1.4,0,2.2,1.6,1.3,2.7l-25.4,34c-0.4,0.6-0.4,1.4,0,2l33.7,45.4
			c0.8,1.1,0,2.7-1.3,2.7h-22.7C188.6,283.9,188.1,283.7,187.8,283.2z"/>
	</g>
</g>
</svg>
